<svg width="48" height="48" viewBox="0 0 48 48" fill="none" xmlns="http://www.w3.org/2000/svg">
<path d="M40.0002 31.999V13.999C40.0002 12.9382 39.5787 11.9207 38.8286 11.1706C38.0784 10.4205 37.061 9.99902 36.0002 9.99902H12.0002C10.9393 9.99902 9.92188 10.4205 9.17174 11.1706C8.42159 11.9207 8.00016 12.9382 8.00016 13.999V31.999M40.0002 31.999H8.00016M40.0002 31.999L42.5602 37.099C42.7144 37.405 42.7874 37.7455 42.7722 38.0877C42.757 38.43 42.6541 38.7627 42.4734 39.0538C42.2927 39.3449 42.0403 39.5847 41.7403 39.7502C41.4403 39.9157 41.1028 40.0014 40.7602 39.999H7.24016C6.89754 40.0014 6.56005 39.9157 6.26005 39.7502C5.96005 39.5847 5.70761 39.3449 5.52692 39.0538C5.34623 38.7627 5.24335 38.43 5.22816 38.0877C5.21297 37.7455 5.28597 37.405 5.44016 37.099L8.00016 31.999" stroke="#ffffff" stroke-width="4" stroke-linecap="round" stroke-linejoin="round"/>
</svg>
