<svg width="24" height="25" viewBox="0 0 24 25" fill="none" xmlns="http://www.w3.org/2000/svg">
<path d="M12 2.25293C11.2044 2.25293 10.4413 2.569 9.87868 3.13161C9.31607 3.69422 9 4.45728 9 5.25293V12.2529C9 13.0486 9.31607 13.8116 9.87868 14.3743C10.4413 14.9369 11.2044 15.2529 12 15.2529C12.7956 15.2529 13.5587 14.9369 14.1213 14.3743C14.6839 13.8116 15 13.0486 15 12.2529V5.25293C15 4.45728 14.6839 3.69422 14.1213 3.13161C13.5587 2.569 12.7956 2.25293 12 2.25293Z" stroke="black" stroke-width="2" stroke-linecap="round" stroke-linejoin="round"/>
<path d="M19 10.2529V12.2529C19 14.1094 18.2625 15.8899 16.9497 17.2027C15.637 18.5154 13.8565 19.2529 12 19.2529C10.1435 19.2529 8.36301 18.5154 7.05025 17.2027C5.7375 15.8899 5 14.1094 5 12.2529V10.2529" stroke="black" stroke-width="2" stroke-linecap="round" stroke-linejoin="round"/>
<path d="M12 19.2529V22.2529" stroke="black" stroke-width="2" stroke-linecap="round" stroke-linejoin="round"/>
</svg>
