<svg width="24" height="25" viewBox="0 0 24 25" fill="none" xmlns="http://www.w3.org/2000/svg">
<path d="M10 8.64453C10.5523 8.64453 11 8.19682 11 7.64453C11 7.09225 10.5523 6.64453 10 6.64453C9.44772 6.64453 9 7.09225 9 7.64453C9 8.19682 9.44772 8.64453 10 8.64453Z" stroke="#737373" stroke-width="2" stroke-linecap="round" stroke-linejoin="round"/>
<path d="M4 21.6445C4.55228 21.6445 5 21.1968 5 20.6445C5 20.0922 4.55228 19.6445 4 19.6445C3.44772 19.6445 3 20.0922 3 20.6445C3 21.1968 3.44772 21.6445 4 21.6445Z" stroke="#737373" stroke-width="2" stroke-linecap="round" stroke-linejoin="round"/>
<path d="M4.69995 19.9445L19 5.64453" stroke="#737373" stroke-width="2" stroke-linecap="round" stroke-linejoin="round"/>
<path d="M21 3.64453L18 4.64453L20 6.64453L21 3.64453Z" stroke="#737373" stroke-width="2" stroke-linecap="round" stroke-linejoin="round"/>
<path d="M9.26 8.32422L5 12.6442L7 17.6442" stroke="#737373" stroke-width="2" stroke-linecap="round" stroke-linejoin="round"/>
<path d="M10 14.6445L15 16.6445L18.5 13.1445" stroke="#737373" stroke-width="2" stroke-linecap="round" stroke-linejoin="round"/>
<path d="M18 12.6445L19 11.6445L20 12.6445L19 13.6445L18 12.6445Z" stroke="#737373" stroke-width="2" stroke-linecap="round" stroke-linejoin="round"/>
</svg>
