<svg width="24" height="25" viewBox="0 0 24 25" fill="none" xmlns="http://www.w3.org/2000/svg">
<path d="M19 11.6445H5C3.89543 11.6445 3 12.54 3 13.6445V20.6445C3 21.7491 3.89543 22.6445 5 22.6445H19C20.1046 22.6445 21 21.7491 21 20.6445V13.6445C21 12.54 20.1046 11.6445 19 11.6445Z" stroke="black" stroke-width="2" stroke-linecap="round" stroke-linejoin="round"/>
<path d="M7 11.6445V7.64453C7 6.31845 7.52678 5.04668 8.46447 4.109C9.40215 3.17132 10.6739 2.64453 12 2.64453C13.3261 2.64453 14.5979 3.17132 15.5355 4.109C16.4732 5.04668 17 6.31845 17 7.64453V11.6445" stroke="black" stroke-width="2" stroke-linecap="round" stroke-linejoin="round"/>
</svg>
