<svg width="24" height="25" viewBox="0 0 24 25" fill="none" xmlns="http://www.w3.org/2000/svg">
<path d="M20 13.2534C20 18.2534 16.5 20.7534 12.34 22.2034C12.1222 22.2772 11.8855 22.2737 11.67 22.1934C7.5 20.7534 4 18.2534 4 13.2534V6.25338C4 5.98816 4.10536 5.73381 4.29289 5.54627C4.48043 5.35874 4.73478 5.25338 5 5.25338C7 5.25338 9.5 4.05338 11.24 2.53338C11.4519 2.35238 11.7214 2.25293 12 2.25293C12.2786 2.25293 12.5481 2.35238 12.76 2.53338C14.51 4.06338 17 5.25338 19 5.25338C19.2652 5.25338 19.5196 5.35874 19.7071 5.54627C19.8946 5.73381 20 5.98816 20 6.25338V13.2534Z" stroke="#2563eb" stroke-width="2" stroke-linecap="round" stroke-linejoin="round"/>
<path d="M9.09998 9.25285C9.33995 8.59148 9.80475 8.0355 10.4131 7.68208C11.0215 7.32867 11.7347 7.20031 12.4281 7.31946C13.1215 7.4386 13.751 7.79765 14.2065 8.33386C14.662 8.87007 14.9145 9.54931 14.92 10.2529C14.92 12.2529 11.92 13.2529 11.92 13.2529" stroke="#2563eb" stroke-width="2" stroke-linecap="round" stroke-linejoin="round"/>
<path d="M12 17.2529H12.01" stroke="#2563eb" stroke-width="2"
      stroke-linecap="round" stroke-linejoin="round"/>
</svg>
