<svg width="48" height="48" viewBox="0 0 48 48" fill="none" xmlns="http://www.w3.org/2000/svg">
<path d="M20.001 25.998C20.8599 27.1462 21.9557 28.0963 23.2141 28.7839C24.4725 29.4714 25.864 29.8802 27.2943 29.9826C28.7246 30.0851 30.1602 29.8787 31.5037 29.3775C32.8472 28.8764 34.0672 28.0921 35.081 27.078L41.081 21.078C42.9026 19.192 43.9105 16.6659 43.8877 14.044C43.8649 11.422 42.8132 8.91387 40.9592 7.05979C39.1051 5.20571 36.597 4.15402 33.975 4.13124C31.353 4.10845 28.827 5.1164 26.941 6.93798L23.501 10.358" stroke="#ffffff" stroke-width="4" stroke-linecap="round" stroke-linejoin="round"/>
<path d="M28 22.0014C27.1411 20.8532 26.0453 19.9031 24.7869 19.2155C23.5285 18.528 22.137 18.1192 20.7067 18.0168C19.2764 17.9143 17.8409 18.1207 16.4973 18.6219C15.1538 19.123 13.9338 19.9073 12.92 20.9214L6.92003 26.9214C5.09845 28.8074 4.09051 31.3335 4.11329 33.9554C4.13608 36.5774 5.18777 39.0855 7.04185 40.9396C8.89593 42.7937 11.4041 43.8454 14.026 43.8682C16.648 43.891 19.174 42.883 21.06 41.0614L24.48 37.6414" stroke="#ffffff" stroke-width="4" stroke-linecap="round" stroke-linejoin="round"/>
</svg>
